Coordinates
version=1
nRows=4
nColumns=60
inDegrees=yes

Units are S.I. units (second, meters, Newtons, ...)
If the header above contains a line with 'inDegrees', this indicates whether rotational values are in degrees (yes) or radians (no).

endheader
time	pelvis_tilt	pelvis_list	pelvis_rotation	pelvis_tx	pelvis_ty	pelvis_tz	hip_flexion_r	hip_adduction_r	hip_rotation_r	knee_angle_r_beta	knee_angle_r	ankle_angle_r	subtalar_angle_r	mtp_angle_r	hip_flexion_l	hip_adduction_l	hip_rotation_l	knee_angle_l_beta	knee_angle_l	ankle_angle_l	subtalar_angle_l	mtp_angle_l	L5_S1_Flex_Ext	L5_S1_Lat_Bending	L5_S1_axial_rotation	L4_L5_Flex_Ext	L4_L5_Lat_Bending	L4_L5_axial_rotation	L3_L4_Flex_Ext	L3_L4_Lat_Bending	L3_L4_axial_rotation	L2_L3_Flex_Ext	L2_L3_Lat_Bending	L2_L3_axial_rotation	L1_L2_Flex_Ext	L1_L2_Lat_Bending	L1_L2_axial_rotation	L1_T12_Flex_Ext	L1_T12_Lat_Bending	L1_T12_axial_rotation	Abs_r3	Abs_r2	Abs_r1	Abs_t1	Abs_t2	arm_flex_r	arm_add_r	arm_rot_r	elbow_flex_r	pro_sup_r	wrist_flex_r	wrist_dev_r	arm_flex_l	arm_add_l	arm_rot_l	elbow_flex_l	pro_sup_l	wrist_flex_l	wrist_dev_l
     38.42000000	     -0.00417241	    -12.92906676	     94.22330383	      0.40311897	      0.84045606	      0.41429683	     49.96502773	     -7.84152584	      0.00585460	      0.79748458	    -45.69250060	     10.77318887	      0.00000000	      0.00000000	     50.37645201	     -4.61103570	     -0.58524684	      0.74763083	    -42.83609106	      8.85600537	      0.00000000	      0.00000000	    -10.91389366	      0.31373005	     -0.19517861	    -20.26819191	      0.41726096	     -0.20737728	    -17.93043589	      0.76280323	     -0.20737728	    -12.47348906	      0.76280323	     -0.17078129	    -10.13464165	      0.63975831	     -0.15858262	     -6.23619884	      0.48596784	     -0.14638396	    -77.95685100	      3.54897703	     -1.08552489	      0.00000000	      0.00000000	     86.53899671	    -15.21701667	     15.21336179	     32.63659705	     77.84839857	     22.45125907	     -0.22937464	     92.76701733	    -14.47901792	     37.42339848	     25.28626020	     60.92750513	     25.38266669	     -4.22582086
     38.43000000	      0.00112997	    -12.85841630	     94.21837520	      0.40299010	      0.83992063	      0.41466439	     50.04321344	     -7.85160141	      0.01779447	      0.80122823	    -45.90699628	     10.79817802	      0.00000000	      0.00000000	     50.47368412	     -4.64082885	     -0.64179654	      0.75203550	    -43.08846011	      8.95959692	      0.00000000	      0.00000000	    -10.91994154	      0.31338140	     -0.17914166	    -20.27942344	      0.41679727	     -0.19033801	    -17.94037196	      0.76195554	     -0.19033801	    -12.48040119	      0.76195554	     -0.15674895	    -10.14025772	      0.63904736	     -0.14555260	     -6.23965460	      0.48542779	     -0.13435625	    -78.00005045	      3.54503311	     -0.99633217	      0.00000000	      0.00000000	     86.43159051	    -15.24657429	     14.93775837	     32.73220285	     77.48626358	     22.40321446	     -0.17999029	     92.68530724	    -14.35078136	     37.11081631	     25.40606782	     60.74025636	     25.38201186	     -4.22842793
     38.44000000	      0.01715068	    -12.78631022	     94.18039577	      0.40291273	      0.83944203	      0.41501788	     50.10037231	     -7.83403100	      0.00408012	      0.80419718	    -46.07710454	     10.82291449	      0.00000000	      0.00000000	     50.57263245	     -4.70052445	     -0.71171288	      0.75688020	    -43.36604128	      9.16649852	      0.00000000	      0.00000000	    -10.91457988	      0.31104607	     -0.16475695	    -20.26946630	      0.41369127	     -0.17505426	    -17.93156329	      0.75627742	     -0.17505426	    -12.47427335	      0.75627742	     -0.14416234	    -10.13527888	      0.63428515	     -0.13386503	     -6.23659094	      0.48181036	     -0.12356772	    -77.96175263	      3.51861536	     -0.91632875	      0.00000000	      0.00000000	     86.36138284	    -15.12689067	     14.49934698	     32.59568363	     77.21136643	     22.32303884	     -0.02353466	     92.49909320	    -14.20274400	     36.62764920	     25.41168756	     60.62279672	     25.30990018	     -4.17288304
     38.45000000	      0.01337979	    -12.71842341	     94.17103947	      0.40278774	      0.83917519	      0.41542311	     50.09243919	     -7.84679190	      0.00903122	      0.80475221	    -46.10890505	     10.81805752	      0.00000000	      0.00000000	     50.57490227	     -4.69414862	     -0.70345109	      0.75774683	    -43.41569509	      9.18220411	      0.00000000	      0.00000000	    -10.91109737	      0.30930442	     -0.15923194	    -20.26299893	      0.41137488	     -0.16918394	    -17.92584187	      0.75204277	     -0.16918394	    -12.47029319	      0.75204277	     -0.13932795	    -10.13204502	      0.63073358	     -0.12937595	     -6.23460104	      0.47911255	     -0.11942396	    -77.93687743	      3.49891349	     -0.88560029	      0.00000000	      0.00000000	     86.20041432	    -15.14288088	     14.38566664	     32.84215225	     76.84799349	     22.31515967	      0.00005135	     92.36710838	    -14.13895989	     36.40275959	     25.48987274	     60.41039065	     25.30980992	     -4.16633160
